<svg width="200" height="200" viewBox="0 0 200 200" fill="none" xmlns="http://www.w3.org/2000/svg">
<g clip-path="url(#clip0_32_80)">
<path d="M200 100C200 155.228 155.228 200 100 200C44.7715 200 0 155.228 0 100C0 44.7715 44.7715 0 100 0C155.228 0 200 44.7715 200 100Z" fill="#121212"/>
<path fill-rule="evenodd" clip-rule="evenodd" d="M48 48H88V88H48V48ZM54 54H82V82H54V54Z" fill="white"/>
<path fill-rule="evenodd" clip-rule="evenodd" d="M112 112H152V152H112V112ZM118 118H146V146H118V118Z" fill="white"/>
<path fill-rule="evenodd" clip-rule="evenodd" d="M68 107.757L92.2426 132L68 156.243L43.7573 132L68 107.757ZM52.2426 132L68 147.757L83.7573 132L68 116.243L52.2426 132Z" fill="white"/>
<path d="M129 65V48H135V65H152V71H135V88H129V71H112V65H129Z" fill="white"/>
</g>
<defs>
<clipPath id="clip0_32_80">
<rect width="200" height="200" fill="white"/>
</clipPath>
</defs>
</svg>
